<?xml version="1.0" encoding="UTF-8"?>
<svg version="1.1" xmlns="http://www.w3.org/2000/svg" width="387" height="276">
<path d="M0 0 C127.71 0 255.42 0 387 0 C387 91.08 387 182.16 387 276 C259.29 276 131.58 276 0 276 C0 184.92 0 93.84 0 0 Z " fill="#0FA4DC" transform="translate(0,0)"/>
<path d="M0 0 C127.71 0 255.42 0 387 0 C387 91.08 387 182.16 387 276 C259.29 276 131.58 276 0 276 C0 184.92 0 93.84 0 0 Z M185.75 21.75 C183.70015364 22.75971266 181.64933245 23.76744816 179.59765625 24.7734375 C178.52531738 25.30163086 177.45297852 25.82982422 176.34814453 26.37402344 C169.60552044 29.64847848 162.77537108 32.73566731 155.95800781 35.85058594 C150.31589827 38.43810675 144.72860346 41.09520344 139.20458984 43.92700195 C136.98350451 45.00802854 134.74347509 45.92896561 132.4375 46.8125 C123.0784144 50.44968018 113.9986895 54.9312376 105.0625 59.5 C100.43459072 61.85371331 95.69123776 63.9169933 90.9375 66 C85.47779081 68.39350349 80.13287492 70.80870076 75.01953125 73.89453125 C72.75854841 75.13216789 70.41918217 76.10258893 68.04516602 77.10083008 C63.97618144 78.88978438 60.02933426 80.93473972 56.0625 82.9375 C55.20720703 83.36740234 54.35191406 83.79730469 53.47070312 84.24023438 C51.78392688 85.08812571 50.09779325 85.93729685 48.41235352 86.7878418 C46.83767891 87.57908351 45.26014741 88.36467221 43.67944336 89.14379883 C38.12376786 91.69576088 38.12376786 91.69576088 34 96 C34.09094155 101.09272688 34.87807251 102.83743002 38 107 C50.87 107.495 50.87 107.495 64 108 C64 156.84 64 205.68 64 256 C56.08 256 48.16 256 40 256 C37.49700192 261.00599616 37.94776901 262.65115915 39 268 C41.53469715 269.26734857 43.2873137 269.12769703 46.12595272 269.13142776 C47.21838754 269.13526891 48.31082235 269.13911005 49.43636125 269.1430676 C50.64635603 269.14220112 51.8563508 269.14133463 53.10301208 269.14044189 C55.01962815 269.14489858 55.01962815 269.14489858 56.97496372 269.1494453 C60.53334979 269.15753367 64.09171571 269.15930588 67.65010989 269.16004276 C71.48316595 269.1618901 75.31621148 269.16943574 79.14926147 269.17617798 C87.53543921 269.18977419 95.92161218 269.19578783 104.3077991 269.20018864 C109.54050279 269.20294851 114.77320462 269.20718535 120.00590706 269.21169281 C134.48367796 269.22388645 148.96144737 269.23418604 163.43922329 269.2375679 C164.82977938 269.23789725 164.82977938 269.23789725 166.24842751 269.23823325 C167.17772366 269.23845153 168.1070198 269.23866981 169.06447643 269.2388947 C170.94768806 269.23933817 172.8308997 269.23978474 174.71411133 269.24023438 C176.11532806 269.24056652 176.11532806 269.24056652 177.5448522 269.24090537 C192.69055879 269.24485568 207.83621732 269.26231637 222.98190533 269.2855939 C238.51852556 269.30928026 254.05512164 269.32176849 269.59176022 269.32293582 C278.32040558 269.32385404 287.04898833 269.32964321 295.7776165 269.34775543 C303.20832301 269.36311975 310.63894755 269.36829864 318.06966691 269.36001733 C321.86343844 269.35609792 325.65704471 269.35710285 329.45079613 269.37107468 C333.55731957 269.38606064 337.66346708 269.37798558 341.77000427 269.36749268 C343.58165035 269.37957728 343.58165035 269.37957728 345.42989534 269.39190602 C346.5249379 269.38531618 347.61998047 269.37872633 348.74820614 269.3719368 C350.17110074 269.37283243 350.17110074 269.37283243 351.62274069 269.37374616 C354.42643451 268.93295714 355.3322396 268.25990894 357 266 C357.22202847 264.0011844 357.22202847 264.0011844 356.8125 261.9375 C356.71582031 261.24527344 356.61914062 260.55304688 356.51953125 259.83984375 C356.0972017 257.77164212 356.0972017 257.77164212 354 256 C346.08 256 338.16 256 330 256 C330 207.16 330 158.32 330 108 C338.58 108 347.16 108 356 108 C360.28244066 102.24068755 360.28244066 102.24068755 360 96 C355.76837613 91.93080209 350.55347844 89.51863797 345.375 86.875 C343.48291238 85.89744608 341.59098869 84.91957481 339.69921875 83.94140625 C338.7457959 83.45043457 337.79237305 82.95946289 336.81005859 82.45361328 C333.37821197 80.6783557 329.96292332 78.87302876 326.54907227 77.06347656 C309.55738531 67.9022956 309.55738531 67.9022956 291.890625 60.19140625 C286.84764905 58.11288238 281.95389136 55.70814435 277.0378418 53.34790039 C273.26075727 51.53632557 269.47891941 49.75379525 265.64453125 48.06640625 C260.12708692 45.63388739 254.68979644 43.03807365 249.25 40.4375 C247.72826172 39.71530273 247.72826172 39.71530273 246.17578125 38.97851562 C245.19480469 38.50994141 244.21382812 38.04136719 243.203125 37.55859375 C242.32301758 37.13892334 241.44291016 36.71925293 240.53613281 36.28686523 C237.94430935 34.97174188 235.48500895 33.50519487 233 32 C231.63946454 31.42296356 230.26312034 30.88209931 228.875 30.375 C223.47255173 28.27313563 218.24204985 25.84352001 213 23.375 C212.15034668 22.97845215 211.30069336 22.5819043 210.42529297 22.17333984 C209.22477295 21.60413818 209.22477295 21.60413818 208 21.0234375 C207.278125 20.68231934 206.55625 20.34120117 205.8125 19.98974609 C204 19 204 19 202 17 C195.86211452 15.95771756 191.05691634 19.06736306 185.75 21.75 Z " fill="#F6F4F0" transform="translate(0,0)"/>
<path d="M0 0 C0.9270238 0.00291284 1.8540476 0.00582568 2.80916303 0.00882679 C3.78598647 0.00797237 4.76280991 0.00711794 5.76923406 0.00623763 C9.06901515 0.00457986 12.36874631 0.01010903 15.66852278 0.01555592 C18.02332013 0.01583775 20.37811757 0.01568013 22.73291487 0.01511341 C29.14794795 0.01482529 35.56296252 0.0207244 41.97799128 0.02768737 C47.99617572 0.03376182 54.01436235 0.03430919 60.03254931 0.03533924 C71.95596976 0.03753008 83.87938338 0.04419101 95.80280012 0.05364186 C107.38808623 0.06281516 118.97337049 0.06989639 130.55865949 0.07414967 C131.27228871 0.07441239 131.98591793 0.07467512 132.72117228 0.0749458 C136.30109466 0.0762508 139.88101706 0.07751452 143.46093947 0.0787577 C173.17914559 0.08913129 202.8973446 0.10682458 232.61554426 0.12908131 C233.25676625 22.42361854 233.76654338 44.69480262 233.71320051 67.00017506 C233.71132365 69.41066161 233.7099058 71.82114855 233.70891279 74.23163563 C233.70518697 80.42070882 233.69544858 86.60975659 233.68420881 92.79882008 C233.67377412 99.17648179 233.66936915 105.55414781 233.66437238 111.93181568 C233.65381163 124.3309169 233.63630255 136.72999297 233.61554426 149.12908131 C225.36554426 149.12908131 217.11554426 149.12908131 208.61554426 149.12908131 C208.60619856 145.3278777 208.59685285 141.52667408 208.58722395 137.61028248 C208.55350812 125.07323133 208.49819177 112.53635437 208.43164152 99.99943787 C208.39180914 92.39575741 208.3594381 84.79218107 208.34454817 77.18840748 C208.33155327 70.56198554 208.30464444 63.9357923 208.26093119 57.30949914 C208.23826717 53.79991772 208.2226365 50.29061887 208.22366041 46.78095776 C208.2245422 42.86575631 208.19436374 38.95113433 208.1614427 35.03606373 C208.16647306 33.8686565 208.17150343 32.70124928 208.17668623 31.49846607 C208.16277342 30.43415867 208.1488606 29.36985127 208.13452619 28.27329212 C208.13083902 27.34689018 208.12715185 26.42048823 208.12335294 25.46601349 C207.79375388 23.03924456 207.79375388 23.03924456 206.03858274 21.33137757 C202.69607634 19.67284718 200.05726577 19.75132958 196.3279466 19.74813038 C195.59231174 19.74345041 194.85667688 19.73877044 194.09875005 19.73394865 C191.63281078 19.7219789 189.16742521 19.73146336 186.70148176 19.74089772 C184.93400206 19.73683289 183.1665249 19.7314915 181.39905256 19.72496754 C176.59745785 19.71127758 171.79605627 19.71659952 166.99445814 19.7261048 C161.97280311 19.73369268 156.95116477 19.72665821 151.9295091 19.7219463 C143.49604787 19.71648621 135.06266541 19.72368702 126.62921613 19.73796803 C116.87481269 19.75429502 107.12059736 19.74900669 97.36619848 19.73248881 C88.9958322 19.71888117 80.62552259 19.71695075 72.25514883 19.72480482 C67.25389103 19.72948531 62.25272169 19.73009586 57.25146955 19.72019535 C52.54991042 19.71153848 47.84859415 19.71752417 43.14706129 19.73487812 C41.42008073 19.73884981 39.69307979 19.73769728 37.96610731 19.73109013 C35.61150823 19.72291134 33.25769096 19.73315118 30.90314192 19.74813038 C28.92539274 19.749827 28.92539274 19.749827 26.90768903 19.75155789 C23.42729429 20.15066869 22.02580306 20.63383422 19.61554426 23.12908131 C18.62683016 26.09522362 18.479418 28.0633475 18.45732588 31.15940052 C18.44264265 32.71799793 18.44264265 32.71799793 18.42766279 34.30808216 C18.42190733 35.44743717 18.41615186 36.58679219 18.41022199 37.76067311 C18.3953726 39.56086399 18.3953726 39.56086399 18.38022321 41.39742237 C18.35403043 44.68845678 18.33217047 47.97946686 18.31222123 51.27054149 C18.29035387 54.70989027 18.26296885 58.14919497 18.23616499 61.58850819 C18.18624825 68.10138055 18.14130564 74.61427739 18.09814262 81.12719762 C18.04876154 88.54190729 17.99384664 95.95657272 17.93846303 103.3712396 C17.82465862 118.6238142 17.71854677 133.87642936 17.61554426 149.12908131 C9.36554426 149.12908131 1.11554426 149.12908131 -7.38445574 149.12908131 C-7.40757338 129.8495506 -7.42543427 110.57002379 -7.43626791 91.2904821 C-7.44143115 82.33929749 -7.44847437 73.38812163 -7.45989519 64.43694264 C-7.46984119 56.63797742 -7.47630896 48.83901855 -7.47854424 41.04004717 C-7.47985149 36.90795945 -7.48293825 32.77588987 -7.4901858 28.64380795 C-7.49694468 24.75906605 -7.49907297 20.87434985 -7.49756342 16.98960263 C-7.49783981 15.55968292 -7.49984572 14.1297624 -7.50366122 12.69984776 C-7.50859633 10.75590079 -7.50685379 8.81194022 -7.50471026 6.86798817 C-7.50563205 5.77750707 -7.50655384 4.68702597 -7.50750357 3.56349999 C-7.2611627 -1.31018862 -4.15516554 0.00991362 0 0 Z " fill="#F2F3EF" transform="translate(84.38445574045181,106.8709186911583)"/>
<path d="M0 0 C3.171875 1.25 3.171875 1.25 6.75 3 C8.07546531 3.63943801 9.40098853 4.27875602 10.7265625 4.91796875 C11.41911133 5.25618652 12.11166016 5.5944043 12.82519531 5.94287109 C16.57603668 7.7660798 20.35160232 9.53659035 24.125 11.3125 C24.83495117 11.64958984 25.54490234 11.98667969 26.27636719 12.33398438 C29.00038137 13.6224574 31.69582836 14.88250067 34.5078125 15.96875 C37.33109485 17.13700477 39.9422491 18.55227712 42.61938477 20.01977539 C49.81550328 23.96374638 57.04671511 27.3773736 64.67260742 30.3984375 C71.70053335 33.21058431 78.40449196 36.57813287 85.13085938 40.0390625 C92.1038043 43.66713326 92.1038043 43.66713326 99.375 46.625 C106.20833161 49.27531086 112.4698298 53.04952825 118.828125 56.66015625 C122.16697008 58.55322986 125.54636628 60.32267789 129 62 C129 62.33 129 62.66 129 63 C42.21 63 -44.58 63 -134 63 C-129.50043783 58.50043783 -129.50043783 58.50043783 -125.98046875 56.88671875 C-125.21395996 56.52989014 -124.44745117 56.17306152 -123.65771484 55.80541992 C-122.4349585 55.25204956 -122.4349585 55.25204956 -121.1875 54.6875 C-120.33365723 54.29216064 -119.47981445 53.89682129 -118.60009766 53.48950195 C-116.07000791 52.31905756 -113.53529685 51.1591107 -111 50 C-108.62263177 48.9008315 -106.2488054 47.79437155 -103.875 46.6875 C-102.69292969 46.13835937 -101.51085937 45.58921875 -100.29296875 45.0234375 C-96.80329981 43.38880762 -93.33253303 41.71656078 -89.86328125 40.0390625 C-88.7645166 39.50837158 -87.66575195 38.97768066 -86.53369141 38.4309082 C-84.35614663 37.37772388 -82.17996342 36.32171822 -80.00537109 35.26245117 C-75.39555493 33.03336483 -70.80448414 30.87281561 -66.03125 29.015625 C-59.96706107 26.65131145 -54.15916086 23.78996309 -48.3125 20.9375 C-46.53273007 20.07455893 -44.75295708 19.21162405 -42.97291565 18.34924316 C-41.76652732 17.76461626 -40.56034041 17.17957353 -39.35435486 16.59411621 C-32.36384132 13.20131912 -25.3493915 9.85887176 -18.33520508 6.51538086 C-17.45501709 6.09522705 -16.5748291 5.67507324 -15.66796875 5.2421875 C-14.444729 4.66162598 -14.444729 4.66162598 -13.19677734 4.06933594 C-11.3312981 3.16126758 -9.49915957 2.18520767 -7.67578125 1.1953125 C-4.71332862 -0.1280605 -3.19908145 -0.4710304 0 0 Z " fill="#F4F3F0" transform="translate(200,31)"/>
<path d="M0 0 C54.78 0 109.56 0 166 0 C166 5.28 166 10.56 166 16 C165 17 165 17 162.30008602 17.12304783 C161.08424108 17.12212604 159.86839613 17.12120424 158.6157074 17.12025452 C157.94106683 17.12110894 157.26642627 17.12196337 156.57134205 17.12284368 C154.29419838 17.12450039 152.0171272 17.11897404 149.73999023 17.11352539 C148.11424766 17.11324353 146.48850495 17.11340122 144.86276245 17.1139679 C140.43526587 17.11425593 136.00779613 17.10835827 131.58030581 17.10139394 C126.95849158 17.09516136 122.3366768 17.09455668 117.71485901 17.09336853 C108.95651763 17.09025493 100.19818867 17.08204115 91.43985277 17.07201904 C81.47145987 17.0608588 71.50306639 17.05534768 61.5346688 17.05032361 C41.02310541 17.03985856 20.51155392 17.02205818 0 17 C0 11.39 0 5.78 0 0 Z " fill="#ECF1EF" transform="translate(115,139)"/>
<path d="M0 0 C0 5.28 0 10.56 0 16 C-13.97908515 16.17391179 -27.95824004 16.34073609 -41.9375 16.5 C-43.50064249 16.51781588 -43.50064249 16.51781588 -45.09536362 16.53599167 C-75.16823897 16.87646371 -105.23761946 17.09519453 -135.3125 17.0625 C-136.10581097 17.06164398 -136.89912193 17.06078796 -137.71647263 17.05990601 C-147.14434087 17.04893967 -156.57217008 17.02956862 -166 17 C-166.02685095 14.52076199 -166.04676547 12.0418116 -166.0625 9.5625 C-166.07506836 8.50192383 -166.07506836 8.50192383 -166.08789062 7.41992188 C-166.09653588 5.61306441 -166.05220011 3.80612397 -166 2 C-164.45424154 0.45424154 -163.00396168 0.8595475 -160.85035706 0.84178162 C-159.50524048 0.82709839 -159.50524048 0.82709839 -158.13294983 0.81211853 C-157.13976242 0.80636307 -156.14657501 0.8006076 -155.12329102 0.79467773 C-154.08179901 0.78477814 -153.04030701 0.77487854 -151.96725464 0.76467896 C-148.47949552 0.73281101 -144.99172406 0.70813619 -141.50390625 0.68359375 C-139.04678539 0.6629744 -136.58966767 0.64197681 -134.1325531 0.62062073 C-128.26708576 0.5708074 -122.40159555 0.52571904 -116.53607553 0.48259836 C-110.70134034 0.43934736 -104.86666921 0.38972389 -99.03199196 0.33934593 C-66.02081781 0.05578089 -33.01232059 -0.06316089 0 0 Z " fill="#EEF1EF" transform="translate(281,193)"/>
<path d="M0 0 C54.78 0 109.56 0 166 0 C166 4.95 166 9.9 166 15 C153.70845141 15.17603498 141.41680271 15.34267481 129.125 15.5 C128.19750443 15.51187725 127.27000885 15.5237545 126.31440735 15.53599167 C96.12563372 15.91933689 65.94116013 16.09115116 35.75 16.0625 C34.38704678 16.06121597 34.38704678 16.06121597 32.99655914 16.05990601 C21.99768162 16.04875285 10.99884642 16.02817772 0 16 C0 10.72 0 5.44 0 0 Z " fill="#F3F3EF" transform="translate(115,167)"/>
<path d="M0 0 C33.33 0 66.66 0 101 0 C101 10.56 101 21.12 101 32 C86.82270891 32.04511303 72.64546518 32.08183653 58.46811867 32.10362434 C51.88561978 32.11407927 45.30317238 32.12826959 38.72070312 32.15087891 C32.37299465 32.17254641 26.02533582 32.18455573 19.67759323 32.18975449 C17.25099277 32.19346122 14.82439514 32.20069911 12.3978157 32.21146011 C9.00945326 32.22589404 5.6212982 32.22798134 2.23291016 32.22705078 C0.71485023 32.23783661 0.71485023 32.23783661 -0.83387756 32.24884033 C-1.75376968 32.246091 -2.6736618 32.24334167 -3.62142944 32.24050903 C-4.42338934 32.24235262 -5.22534924 32.24419621 -6.05161095 32.24609566 C-8 32 -8 32 -10 30 C4.430619 24.68345616 19.89981178 23.00188133 35.0625 20.9375 C36.01879303 20.80549194 36.97508606 20.67348389 37.96035767 20.53747559 C51.78439008 18.64049168 65.5361323 17.20040198 79.47875977 16.58178711 C81.16569946 16.50263062 81.16569946 16.50263062 82.88671875 16.421875 C84.34404419 16.36918457 84.34404419 16.36918457 85.83081055 16.31542969 C86.54664307 16.21133789 87.26247559 16.10724609 88 16 C89.4472136 13.47825081 89.4472136 13.47825081 89 8 C59.63 7.67 30.26 7.34 0 7 C0 4.69 0 2.38 0 0 Z " fill="#EFF2EF" transform="translate(180,224)"/>
<path d="M0 0 C1.2375 0.1546875 1.2375 0.1546875 2.5 0.3125 C4.5 3.3125 4.5 3.3125 4.3984375 5.61328125 C3.22674483 9.13345358 1.38108676 11.56124621 -0.875 14.5 C-1.66648438 15.54542969 -2.45796875 16.59085938 -3.2734375 17.66796875 C-5.5 20.3125 -5.5 20.3125 -8.5 22.3125 C-11.1875 21.9375 -11.1875 21.9375 -13.5 21.3125 C-14.30078125 19.26171875 -14.30078125 19.26171875 -14.5 16.3125 C-13.2188084 13.67636274 -11.47420495 11.43877082 -9.6875 9.125 C-9.22279297 8.49658203 -8.75808594 7.86816406 -8.27929688 7.22070312 C-3.19423559 0.39927945 -3.19423559 0.39927945 0 0 Z " fill="#19A7DD" transform="translate(192.5,65.6875)"/>
<path d="M0 0 C2 2 2 2 2.35546875 4.34375 C1.89633347 7.77465102 0.68246436 9.01175645 -1.6875 11.5 C-2.41839844 12.27085938 -3.14929688 13.04171875 -3.90234375 13.8359375 C-4.59457031 14.55007812 -5.28679687 15.26421875 -6 16 C-6.49628906 16.56976563 -6.99257812 17.13953125 -7.50390625 17.7265625 C-8.75 19.125 -8.75 19.125 -11 21 C-13.3125 20.8125 -13.3125 20.8125 -15 20 C-15.99428296 17.20357917 -16.37703476 15.8972145 -16 13 C-8.16870839 -0.83781625 -8.16870839 -0.83781625 0 0 Z " fill="#10A4DC" transform="translate(170,67)"/>
<path d="M0 0 C3.125 0.375 3.125 0.375 6 1 C6.41404952 6.66819515 5.5375998 9.6725576 2.375 14.375 C1.70210937 15.41398437 1.02921875 16.45296875 0.3359375 17.5234375 C-2 20 -2 20 -5.1484375 20.9765625 C-6.55996094 20.98816406 -6.55996094 20.98816406 -8 21 C-10 19 -10 19 -10.3671875 16.76171875 C-9.87061574 13.02686516 -8.27213119 10.8880171 -6.125 7.8125 C-5.40570313 6.76707031 -4.68640625 5.72164063 -3.9453125 4.64453125 C-2 2 -2 2 0 0 Z " fill="#1AA7DD" transform="translate(213,66)"/>
<path d="M0 0 C2.2109885 0.42793326 3.98119242 0.99059621 6 2 C6.33380368 5.67722437 6.27791008 7.54694194 4.3203125 10.73828125 C3.59585938 11.58777344 2.87140625 12.43726562 2.125 13.3125 C1.40570313 14.17488281 0.68640625 15.03726563 -0.0546875 15.92578125 C-2 18 -2 18 -4 19 C-5.99960012 19.039992 -8.00047242 19.04346799 -10 19 C-10.37452552 14.76944407 -10.37132602 12.5866201 -8.06640625 8.9453125 C-7.24011719 8.01460937 -6.41382813 7.08390625 -5.5625 6.125 C-4.73878906 5.17882812 -3.91507813 4.23265625 -3.06640625 3.2578125 C-1 1 -1 1 0 0 Z " fill="#17A6DD" transform="translate(139,67)"/>
<path d="M0 0 C2.6875 0.6875 2.6875 0.6875 3.6875 1.6875 C4.00536783 8.00339562 2.15422631 12.25741948 -1.546875 17.25390625 C-3.3125 18.6875 -3.3125 18.6875 -5.890625 19.02734375 C-8.3125 18.6875 -8.3125 18.6875 -10.3125 16.6875 C-10.3125 10.30285839 -6.57930595 1.36551633 0 0 Z " fill="#15A6DD" transform="translate(238.3125,67.3125)"/>
<path d="M0 0 C0.33 0 0.66 0 1 0 C1 10.56 1 21.12 1 32 C-13.17729109 32.04511303 -27.35453482 32.08183653 -41.53188133 32.10362434 C-48.11438022 32.11407927 -54.69682762 32.12826959 -61.27929688 32.15087891 C-67.62700535 32.17254641 -73.97466418 32.18455573 -80.32240677 32.18975449 C-82.74900723 32.19346122 -85.17560486 32.20069911 -87.6021843 32.21146011 C-90.99054674 32.22589404 -94.3787018 32.22798134 -97.76708984 32.22705078 C-99.28514977 32.23783661 -99.28514977 32.23783661 -100.83387756 32.24884033 C-101.75376968 32.246091 -102.6736618 32.24334167 -103.62142944 32.24050903 C-104.42338934 32.24235262 -105.22534924 32.24419621 -106.05161095 32.24609566 C-108 32 -108 32 -110 30 C-109.01 29.67 -108.02 29.34 -107 29 C-106.34 29.33 -105.68 29.66 -105 30 C-103.59390388 30.10338543 -102.18312751 30.14644166 -100.77328491 30.15821838 C-99.88704941 30.1680072 -99.0008139 30.17779602 -98.08772278 30.18788147 C-96.62576729 30.19651466 -96.62576729 30.19651466 -95.13427734 30.20532227 C-94.10986038 30.21522186 -93.08544342 30.22512146 -92.02998352 30.23532104 C-88.63199197 30.26699755 -85.23398643 30.29171778 -81.8359375 30.31640625 C-79.48466623 30.33697047 -77.13339871 30.35796679 -74.78213501 30.37937927 C-68.58434066 30.43465493 -62.38651265 30.48403996 -56.18865967 30.53222656 C-49.86793002 30.58240152 -43.54724945 30.63810846 -37.2265625 30.69335938 C-24.81774864 30.80100814 -12.40889325 30.90192717 0 31 C0 20.77 0 10.54 0 0 Z " fill="#ABD9E8" transform="translate(280,224)"/>
<path d="M0 0 C0.54172852 0.13784912 1.08345703 0.27569824 1.64160156 0.41772461 C4.69455865 1.17148265 7.5913176 1.21990887 10.734375 1.31640625 C12.02988281 1.35830078 13.32539063 1.40019531 14.66015625 1.44335938 C16.02343476 1.48316671 17.38671606 1.52287906 18.75 1.5625 C20.12891875 1.60572274 21.50782526 1.64933821 22.88671875 1.69335938 C26.2577119 1.79943958 29.62877826 1.9014985 33 2 C33 2.33 33 2.66 33 3 C28.47934572 3.049377 23.95884783 3.08570823 19.43798828 3.10986328 C17.89954902 3.11993118 16.36112893 3.13358646 14.82275391 3.15087891 C12.61355867 3.17509317 10.40461605 3.18647491 8.1953125 3.1953125 C7.50567413 3.20563507 6.81603577 3.21595764 6.10549927 3.22659302 C4.40199094 3.22699478 2.69914057 3.12191026 1 3 C0.34 2.34 -0.32 1.68 -1 1 C-0.67 0.67 -0.34 0.34 0 0 Z " fill="#9ED5E9" transform="translate(171,253)"/>
<path d="M0 0 C-0.556875 0.226875 -1.11375 0.45375 -1.6875 0.6875 C-4.63246684 2.35896766 -6.68156544 4.55276352 -9 7 C-9.66 6.67 -10.32 6.34 -11 6 C-7.34769214 1.25199978 -6.01084259 -0.15818007 0 0 Z " fill="#33ADDF" transform="translate(170,67)"/>
</svg>
